# AST/ASF file generated using VICON BodyLanguage
# -----------------------------------------------
:version 1.10
:name VICON
:units
  mass 1.0
  length 0.45
  angle deg
:documentation
   .ast/.asf automatically generated from VICON data using
   VICON BodyBuilder and BodyLanguage model FoxedUp or BRILLIANT.MOD
:root
   order TX TY TZ RX RY RZ
   axis XYZ
   position 0 0 0  
   orientation 0 0 0 
:bonedata
  begin
     id 1 
     name lhipjoint
     direction 0.646657 -0.683706 0.338203 
     length 2.4948 
     axis 0 0 0  XYZ
  end
  begin
     id 2 
     name lfemur
     direction 0.34202 -0.939693 0  
     length 6.79491  
     axis 0 0 20  XYZ
    dof rx ry rz
    limits (-160.0 20.0)
           (-70.0 70.0)
           (-60.0 70.0)
  end
  begin
     id 3 
     name ltibia
     direction 0.34202 -0.939693 0   
     length 7.56807   
     axis 0 0 20   XYZ
    dof rx
    limits (-10.0 170.0)
  end
  begin
     id 4 
     name lfoot
     direction 0.0679796 -0.186772 0.980048   
     length 2.53018   
     axis -90 7.62852e-016 20   XYZ
    dof rx rz
    limits (-45.0 90.0)
           (-70.0 20.0)
  end
  begin
     id 5 
     name ltoes
     direction 1.53625e-011 -4.21881e-011 1   
     length 1.26912   
     axis -90 7.62852e-016 20   XYZ
    dof rx
    limits (-90.0 20.0)
  end
  begin
     id 6 
     name rhipjoint
     direction -0.618868 -0.704065 0.348274   
     length 2.42265  
     axis 0 0 0  XYZ 
  end
  begin
     id 7 
     name rfemur
     direction -0.34202 -0.939693 0   
     length 6.73814   
     axis 0 0 -20   XYZ
    dof rx ry rz
    limits (-160.0 20.0)
           (-70.0 70.0)
           (-70.0 60.0)
  end
  begin
     id 8 
     name rtibia
     direction -0.34202 -0.939693 0   
     length 7.66799   
     axis 0 0 -20   XYZ
    dof rx
    limits (-10.0 170.0)
 end
 begin
     id 9 
     name rfoot
     direction -0.0727352 -0.199838 0.977125   
     length 2.57224  
     axis -90 -7.62852e-016 -20   XYZ
    dof rx rz
    limits (-45.0 90.0)
           (-20.0 70.0)
  end
  begin
     id 10 
     name rtoes
     direction -1.53501e-011 -4.21858e-011 1   
     length 1.28858   
     axis -90 -7.62852e-016 -20   XYZ
    dof rx
    limits (-90.0 20.0)
  end
  begin
     id 11 
     name lowerback
     direction -0.0172471 0.995767 -0.0902851   
     length 2.20206   
     axis 0 0 0   XYZ
    dof rx ry rz
    limits (-20.0 45.0)
           (-30.0 30.0)
           (-30.0 30.0)
  end
  begin
     id 12 
     name upperback
     direction -0.000110737 0.999714 0.0239043   
     length 2.19523   
     axis 0 0 0   XYZ
    dof rx ry rz
    limits (-20.0 45.0)
           (-30.0 30.0)
           (-30.0 30.0)
  end
  begin
     id 13 
     name thorax
     direction 0.00704869 0.997783 0.0661741   
     length 2.21977   
     axis 0 0 0   XYZ
    dof rx ry rz
    limits (-20.0 45.0)
           (-30.0 30.0)
           (-30.0 30.0)
  end
  begin
     id 14 
     name lowerneck
     direction -0.00407501 0.995527 0.0943846   
     length 1.83142   
     axis 0 0 0   XYZ
    dof rx ry rz
    limits (-20.0 45.0)
           (-30.0 30.0)
           (-30.0 30.0)
  end
  begin
     id 15 
     name upperneck
     direction 0.0640586 0.986486 -0.150807   
     length 1.84616   
     axis 0 0 0   XYZ
    dof rx ry rz
    limits (-20.0 45.0)
           (-30.0 30.0)
           (-30.0 30.0)
  end
  begin
     id 16
     name head
     direction 0.0188017 0.99791 -0.0618239  
     length 1.85932  
     axis 0 0 0   XYZ
    dof rx ry rz
    limits (-20.0 45.0)
           (-30.0 30.0)
           (-30.0 30.0)
  end
  begin
     id 17 
     name lclavicle
     direction 0.976074 0.206905 0.066852  
     length 3.81043  
     axis 0 0 0   XYZ
    dof ry rz
    limits (-20.0 10.0)
           (0.0 20.0)
  end
  begin
     id 18 
     name lhumerus
     direction 1 -4.48971e-011 1.86916e-027   
     length 5.37587   
     axis 180 -30 -90   XYZ
    dof rx ry rz
    limits (-60.0 90.0)
           (-90.0 90.0)
           (-90.0 90.0)
  end
  begin
     id 19
     name lradius
     direction 1 -4.48968e-011 1.69187e-027   
     length 3.35977   
     axis 180 -30 -90   XYZ
    dof rx
    limits (-10.0 170.0)
  end
  begin
     id 20
     name lwrist
     direction 1 -4.48968e-011 5.8978e-027   
     length 1.67988   
     axis -3.27506e-015 90 90   XYZ
    dof ry
    limits (-180.0 0.0)
 end
  begin
     id 21 
     name lhand
     direction 1 -4.49028e-011 1.18071e-026   
     length 0.561859   
     axis -7.52654e-015 90 90   XYZ
    dof rx rz
    limits (-90.0 90.0)
           (-45.0 45.0)
  end
  begin
     id 22 
     name lfingers
     direction 1 -4.48927e-011 2.35758e-026   
     length 0.452985   
     axis -1.50534e-014 90 90   XYZ
    dof rx
    limits (0.0 90.0)
  end
  begin
     id 23
     name lthumb
     direction 0.707107 -6.34898e-011 0.707107   
     length 0.650399   
     axis -90 45 5.69224e-014   XYZ
    dof rx rz
    limits (-45.0 45.0)
           (-45.0 45.0)
  end
  begin
     id 24 
     name rclavicle
     direction -0.988403 0.151789 0.00439714   
     length 3.6942  
     axis 0 0 0   XYZ 
    dof ry rz
    limits (-10.0 20.0)
           (-20.0 0.0)
  end
  begin
     id 25 
     name rhumerus
     direction -1 -4.48978e-011 1.62495e-027  
     length 5.22819   
     axis 180 30 90   XYZ
    dof rx ry rz
    limits (-90.0 60.0)
           (-90.0 90.0)
           (-90.0 90.0)
  end
  begin
     id 26 
     name rradius
     direction -1 -4.48961e-011 3.47796e-027   
     length 3.40764   
     axis 180 30 90   XYZ
    dof rx
    limits (-10.0 170.0)
  end
  begin
     id 27 
     name rwrist
     direction -1 -4.48949e-011 5.89602e-027   
     length 1.70382   
     axis -3.27506e-015 -90 -90   XYZ
    dof ry
    limits (-180.0 0.0)
  end
  begin
     id 28
     name rhand
     direction -1 -4.48977e-011 1.17973e-026   
     length 0.583255   
     axis -7.52654e-015 -90 -90   XYZ
    dof rx rz
    limits (-90.0 90.0)
           (-45.0 45.0)
  end
  begin
     id 29
     name rfingers
     direction -1 -4.49099e-011 2.36408e-026   
     length 0.470235   
     axis -1.50534e-014 -90 -90   XYZ
    dof rx
    limits (0.0 90.0)
  end
  begin
     id 30
     name rthumb
     direction -0.707107 -6.35011e-011 0.707107   
     length 0.675167   
     axis -90 -45 -5.69224e-014   XYZ
    dof rx rz
    limits (-45.0 45.0)
           (-45.0 45.0)
  end
:hierarchy
  begin
    root lhipjoint rhipjoint lowerback
    lhipjoint lfemur
    lfemur ltibia
    ltibia lfoot
    lfoot ltoes
    rhipjoint rfemur
    rfemur rtibia
    rtibia rfoot
    rfoot rtoes
    lowerback upperback
    upperback thorax
    thorax lowerneck lclavicle rclavicle
    lowerneck upperneck
    upperneck head
    lclavicle lhumerus
    lhumerus lradius
    lradius lwrist
    lwrist lhand lthumb
    lhand lfingers
    rclavicle rhumerus
    rhumerus rradius
    rradius rwrist
    rwrist rhand rthumb
    rhand rfingers
  end

#!OML:ASF G:\JayActor3\Patient Classification 1\Patient 1\Session 2\male.ASF
:FULLY-SPECIFIED
:DEGREES
364
root -3.00347 16.5529 -5.59943 311.434 -92.6631 -314.201
lowerback 1.26842 0.0231535 0.0676668
upperback 0.930495 0.0262532 -0.264256
thorax 0.241305 0.0118388 -0.308517
lowerneck -9.68083 -1.83222 -2.10114
upperneck 6.3125 -2.90286 7.70981
head 3.61057 -1.14041 2.51933
rclavicle -3.01283e-015 1.19271e-015
rhumerus -36.1944 25.606 -98.7097
rradius 55.3291
rwrist -6.86001
rhand -30.9238 1.61519
rfingers 7.12502
rthumb -4.20955 -28.323
lclavicle -3.01283e-015 1.19271e-015
lhumerus -55.1323 -20.0317 92.8032
lradius 32.4224
lwrist 13.2318
lhand -11.668 24.2815
lfingers 7.12502
lthumb 14.3769 53.7636
rfemur -0.164243 0.354325 25.3984
rtibia 68.0296
rfoot 4.06845 -15.5527
rtoes 23.5533
lfemur -20.7397 6.39789 -20.8462
ltibia 32.042
lfoot -8.56344 0.751289
ltoes -9.71226
365
root -3.35266 16.5481 -5.59063 328.591 -91.5683 -331.589
lowerback 1.53589 -0.107683 -1.05551
upperback 1.03236 -0.165534 -0.658441
thorax 0.196742 -0.0899611 -0.0800196
lowerneck -9.60146 -1.80636 -1.9901
upperneck 6.20514 -2.87366 7.67704
head 3.56159 -1.12914 2.4933
rclavicle -8.47941e-016 -3.97569e-015
rhumerus -36.7259 25.0999 -98.9111
rradius 53.1617
rwrist -6.45444
rhand -30.9137 1.39558
rfingers 7.12502
rthumb -4.19983 -28.5428
lclavicle -8.47941e-016 -3.97569e-015
lhumerus -53.1091 -20.4478 92.8478
lradius 32.6881
lwrist 13.2184
lhand -13.3113 24.6795
lfingers 7.12502
lthumb 12.7931 54.2675
rfemur -3.14614 0.57321 24.1661
rtibia 71.689
rfoot 2.63927 -15.1307
rtoes 22.4089
lfemur -19.2263 6.22126 -22.1723
ltibia 32.1335
lfoot -8.97083 0.822933
ltoes -7.99856
366
root -3.69957 16.5451 -5.57657 368.312 -91.0027 -371.336
lowerback 1.60462 -0.210427 -1.91157
upperback 1.08538 -0.318207 -0.975824
thorax 0.216667 -0.171847 0.07673
lowerneck -9.55481 -1.78345 -1.90376
upperneck 6.16065 -2.84961 7.65161
head 3.53775 -1.11855 2.4731
rclavicle 3.27218e-015 1.31198e-014
rhumerus -37.3099 24.7019 -99.0936
rradius 50.9287
rwrist -6.10493
rhand -30.6179 1.16239
rfingers 7.12502
rthumb -3.91417 -28.7814
lclavicle 3.27218e-015 1.31198e-014
lhumerus -51.0106 -20.8236 92.8665
lradius 33.1964
lwrist 13.2509
lhand -14.8589 25.0982
lfingers 7.12502
lthumb 11.3008 54.7738
rfemur -6.39808 0.865441 23.1444
rtibia 74.8535
rfoot 0.96768 -14.8911
rtoes 21.3888
lfemur -17.867 5.94544 -23.2732
ltibia 32.1488
lfoot -9.56626 1.10506
ltoes -6.68747
367
root -4.04694 16.5432 -5.556 410.618 -91.1537 -413.534
lowerback 1.50502 -0.282108 -2.48836
upperback 1.12522 -0.420526 -1.22061
thorax 0.317468 -0.228159 0.149483
lowerneck -9.56695 -1.77026 -1.86065
upperneck 6.16599 -2.83844 7.65261
head 3.54031 -1.11175 2.46697
rclavicle -1.17839e-015 -4.77083e-015
rhumerus -37.9397 24.3703 -99.2445
rradius 48.6818
rwrist -5.81644
rhand -30.0722 0.909146
rfingers 7.12502
rthumb -3.38722 -29.0437
lclavicle -1.17839e-015 -4.77083e-015
lhumerus -48.8312 -21.1878 92.8787
lradius 33.933
lwrist 13.3762
lhand -16.2942 25.5252
lfingers 7.12502
lthumb 9.91633 55.2716
rfemur -9.78766 1.22458 22.3085
rtibia 77.4687
rfoot -0.941834 -14.806
rtoes 20.4356
lfemur -16.5856 5.58625 -24.1594
ltibia 32.1069
lfoot -10.3412 1.5409
ltoes -5.86407
368
root -4.39759 16.5415 -5.5296 428.482 -91.5787 -431.24
lowerback 1.29436 -0.316227 -2.83449
upperback 1.17961 -0.463027 -1.41207
thorax 0.493529 -0.254508 0.145738
lowerneck -9.63753 -1.76553 -1.85106
upperneck 6.20182 -2.83824 7.67567
head 3.56305 -1.10821 2.47212
rclavicle 1.32161e-015 1.07344e-014
rhumerus -38.6369 24.0834 -99.3833
rradius 46.4629
rwrist -5.64705
rhand -29.319 0.648228
rfingers 7.12502
rthumb -2.65978 -29.3149
lclavicle 1.32161e-015 1.07344e-014
lhumerus -46.5984 -21.5641 92.893
lradius 34.8889
lwrist 13.6343
lhand -17.642 25.9167
lfingers 7.12502
lthumb 8.61584 55.7208
rfemur -13.1756 1.65773 21.5946
rtibia 79.5065
rfoot -3.0315 -14.8194
rtoes 19.5889
lfemur -15.2815 5.21934 -24.878
ltibia 32.0024
lfoot -11.26 2.03958
ltoes -5.42213
369
root -4.75188 16.5387 -5.49992 435.482 -92.0053 -438.1
lowerback 1.05666 -0.323418 -3.0388
upperback 1.25136 -0.46436 -1.57135
thorax 0.700835 -0.260168 0.0946943
lowerneck -9.72773 -1.764 -1.84908
upperneck 6.23764 -2.84091 7.69549
head 3.58921 -1.10591 2.47725
rclavicle 5.05969e-015 1.07344e-014
rhumerus -39.4471 23.8339 -99.5469
rradius 44.311
rwrist -5.66575
rhand -28.4615 0.383865
rfingers 7.12502
rthumb -1.83164 -29.588
lclavicle 5.05969e-015 1.07344e-014
lhumerus -44.3742 -21.9668 92.9123
lradius 36.0735
lwrist 14.0253
lhand -18.9249 26.2162
lfingers 7.12502
lthumb 7.37766 56.0676
rfemur -16.4593 2.12944 20.9372
rtibia 80.9681
rfoot -5.26333 -14.8837
rtoes 18.8008
lfemur -13.8822 4.92145 -25.4872
ltibia 31.8153
lfoot -12.2583 2.48575
ltoes -5.24778
370
root -5.10797 16.5333 -5.47024 438.918 -92.4143 -441.445
lowerback 0.879633 -0.315065 -3.19318
upperback 1.32325 -0.445903 -1.71546
thorax 0.873583 -0.255468 0.0315633
lowerneck -9.81039 -1.76063 -1.84445
upperneck 6.26548 -2.84008 7.70691
head 3.61136 -1.1025 2.47965
rclavicle 5.11249e-015 1.43125e-014
rhumerus -40.4024 23.6028 -99.7616
rradius 42.2411
rwrist -5.88502
rhand -27.5726 0.133725
rfingers 7.12502
rthumb -0.973085 -29.8438
lclavicle 5.11249e-015 1.43125e-014
lhumerus -42.2266 -22.4216 92.9433
lradius 37.4894
lwrist 14.5184
lhand -20.1388 26.3855
lfingers 7.12502
lthumb 6.20578 56.2746
rfemur -19.5957 2.59893 20.2877
rtibia 81.8791
rfoot -7.5771 -14.9537
rtoes 18.0598
lfemur -12.3634 4.78197 -26.0272
ltibia 31.528
lfoot -13.2609 2.74464
ltoes -5.25911
